<?xml version="1.0" encoding="utf-8"?>
<!-- Generator: Adobe Illustrator 27.5.0, SVG Export Plug-In . SVG Version: 6.00 Build 0)  -->
<svg version="1.1" xmlns="http://www.w3.org/2000/svg" xmlns:xlink="http://www.w3.org/1999/xlink" x="0px" y="0px"
	 viewBox="0 0 500 500" style="enable-background:new 0 0 500 500;" xml:space="preserve">
<g id="Background_complete">
	<g>
		<g>
			<g>
				<g>
					<path style="fill:#F0F0F0;" d="M444.708,349.145H263.962c-3.232,0-5.862-2.63-5.862-5.862V80.009
						c0-3.232,2.63-5.862,5.862-5.862h180.746c3.232,0,5.862,2.629,5.862,5.862v263.273
						C450.57,346.515,447.94,349.145,444.708,349.145z M263.962,74.397c-3.095,0-5.612,2.518-5.612,5.612v263.273
						c0,3.095,2.518,5.612,5.612,5.612h180.746c3.095,0,5.612-2.518,5.612-5.612V80.009c0-3.094-2.518-5.612-5.612-5.612H263.962z"
						/>
				</g>
			</g>
			<g>
				<g>
					<path style="fill:#F0F0F0;" d="M236.28,349.145H55.534c-3.232,0-5.862-2.63-5.862-5.862V80.009
						c0-3.232,2.629-5.862,5.862-5.862H236.28c3.232,0,5.862,2.629,5.862,5.862v263.273
						C242.143,346.515,239.513,349.145,236.28,349.145z M55.534,74.397c-3.094,0-5.612,2.518-5.612,5.612v263.273
						c0,3.095,2.518,5.612,5.612,5.612H236.28c3.095,0,5.612-2.518,5.612-5.612V80.009c0-3.094-2.518-5.612-5.612-5.612H55.534z"/>
				</g>
			</g>
		</g>
		<g>
			<g>
				<rect x="0" y="410.214" style="fill:#F0F0F0;" width="500" height="0.25"/>
			</g>
		</g>
	</g>
	<path style="fill:#F5F5F5;" d="M261.324,157.23c-1.518-3.541-5.348-10.159-13.26-11.964c-7.24-1.652-12.708,7.496-17.197,8.17
		c-4.489,0.674-3.99-1.348-12.967-4.718c-7.677-2.882-12.825,4.613-14.644,8.512H261.324z"/>
	<path style="fill:#F5F5F5;" d="M357.375,101.048c-1.518-3.541-5.348-10.159-13.26-11.964c-7.24-1.652-12.708,7.496-17.197,8.17
		c-4.489,0.674-3.99-1.348-12.967-4.718c-7.677-2.882-12.825,4.613-14.644,8.512H357.375z"/>
	<path style="fill:#F5F5F5;" d="M133.803,111.337c0,0,0-8.059-7.915-8.396c-3.782-0.161-8.404,2.937-11.323-1.962
		c-3.389-5.688-9.319-9.077-14.656-6.876c-5.897,2.432-9.24,11.754-14.997,10.991c-5.756-0.763-16.749-4.595-22.425,6.243H133.803z"
		/>
	<g>
		<g>
			<polygon style="fill:#F5F5F5;" points="321.895,349.729 321.895,227.279 316.798,227.279 308.053,212.132 300.236,198.594 
				300.236,173.598 298.379,173.598 298.379,198.594 290.563,212.132 281.818,227.279 276.72,227.279 276.72,349.729 			"/>
		</g>
		<g>
			<polygon style="fill:#F5F5F5;" points="132.32,299.101 132.32,199.236 128.163,199.236 121.031,186.883 114.657,175.842 
				114.657,155.456 113.141,155.456 113.141,175.842 106.767,186.883 99.635,199.236 95.478,199.236 95.478,299.101 			"/>
		</g>
		<g>
			<rect x="219.46" y="216.679" style="fill:#F5F5F5;" width="43.951" height="133.05"/>
		</g>
		<g>
			<polygon style="fill:#F5F5F5;" points="186.425,349.729 186.425,219.175 134.575,240.479 134.575,349.729 			"/>
		</g>
		<g>
			<polygon style="fill:#F5F5F5;" points="386.07,349.729 386.07,195.898 380.637,195.898 380.637,184.553 376.634,182.739 
				376.634,152.262 374.703,152.262 374.703,181.864 337.28,164.905 337.28,195.898 333.545,195.898 333.545,349.729 			"/>
		</g>
		<g>
			<g>
				<g>
					<rect x="179.998" y="227.279" style="fill:#E6E6E6;" width="45.175" height="122.45"/>
				</g>
			</g>
		</g>
		<g>
			<polygon style="fill:#E6E6E6;" points="202.585,227.279 185.095,227.279 193.84,212.132 202.585,196.985 211.33,212.132 
				220.075,227.279 			"/>
		</g>
		<g>
			<rect x="201.656" y="173.598" style="fill:#E6E6E6;" width="1.858" height="34.531"/>
		</g>
		<g>
			<g>
				<rect x="273.261" y="159.786" style="fill:#E6E6E6;" width="1.858" height="34.531"/>
			</g>
			<g>
				<rect x="233.651" y="201.781" style="fill:#E6E6E6;" width="50.55" height="147.948"/>
			</g>
			<g>
				<polygon style="fill:#E6E6E6;" points="278.972,216.679 237.245,216.679 237.245,171.954 278.972,190.864 				"/>
			</g>
		</g>
		<g>
			<g>
				<rect x="297.812" y="234.767" style="fill:#E6E6E6;" width="48.425" height="114.962"/>
			</g>
			<g>
				<rect x="301.372" y="230.834" style="fill:#E6E6E6;" width="18.271" height="15.592"/>
			</g>
			<g>
				<rect x="303.016" y="229.685" style="fill:#E6E6E6;" width="4.898" height="13.999"/>
			</g>
			<g>
				<rect x="313.211" y="229.685" style="fill:#E6E6E6;" width="4.898" height="13.999"/>
			</g>
			<g>
				<rect x="332.263" y="230.889" style="fill:#E6E6E6;" width="10.877" height="10.877"/>
			</g>
		</g>
		<g>
			<g>
				<rect x="110.339" y="234.767" style="fill:#E6E6E6;" width="48.425" height="114.962"/>
			</g>
			<g>
				<rect x="113.899" y="230.834" style="fill:#E6E6E6;" width="18.271" height="15.592"/>
			</g>
			<g>
				<rect x="115.543" y="229.685" style="fill:#E6E6E6;" width="4.898" height="13.999"/>
			</g>
			<g>
				<rect x="125.738" y="229.685" style="fill:#E6E6E6;" width="4.898" height="13.999"/>
			</g>
			<g>
				<rect x="144.79" y="230.889" style="fill:#E6E6E6;" width="10.877" height="10.877"/>
			</g>
		</g>
		<rect x="78.479" y="251.039" style="fill:#F5F5F5;" width="31.743" height="98.69"/>
		<rect x="62.608" y="299.108" style="fill:#F5F5F5;" width="31.743" height="50.309"/>
		
			<rect x="385.051" y="251.039" transform="matrix(-1 -1.224647e-16 1.224647e-16 -1 801.8456 600.7678)" style="fill:#F5F5F5;" width="31.743" height="98.69"/>
		
			<rect x="400.923" y="299.108" transform="matrix(-1 -1.224647e-16 1.224647e-16 -1 833.5883 648.5255)" style="fill:#F5F5F5;" width="31.743" height="50.309"/>
		<g>
			<g>
				<g>
					<rect x="359.097" y="227.279" style="fill:#E6E6E6;" width="45.175" height="122.45"/>
				</g>
			</g>
		</g>
	</g>
	<circle style="fill:#F5F5F5;" cx="414.147" cy="103.753" r="19.747"/>
</g>
<g id="Background_simple" style="display:none;">
	<g style="display:inline;">
		<path style="fill:#407BFF;" d="M270.767,84.96c36.716-6.429,100.97,12.632,120.724,47.353
			c13.525,23.771,17.151,44.867,4.57,71.898c-32.281,69.358-123.031,17.067-154.724,101.893
			c-36.766,98.404-126.712,86.325-142.616,1.719C82.526,221.653,144.666,107.041,270.767,84.96z"/>
		<path style="opacity:0.9;fill:#FFFFFF;" d="M270.767,84.96c36.716-6.429,100.97,12.632,120.724,47.353
			c13.525,23.771,17.151,44.867,4.57,71.898c-32.281,69.358-123.031,17.067-154.724,101.893
			c-36.766,98.404-126.712,86.325-142.616,1.719C82.526,221.653,144.666,107.041,270.767,84.96z"/>
	</g>
</g>
<g id="Shadow">
	<ellipse style="fill:#F0F0F0;" cx="258.35" cy="435.464" rx="214.665" ry="19.61"/>
</g>
<g id="Speech_bubble_3">
	<g>
		<path style="fill:#263238;" d="M321.076,438.474l12.649,6.192l-35.356-4.388c-12.097,0.68-25.673,1.061-40.019,1.061
			c-50.73,0-91.854-4.763-91.854-10.637s41.124-10.637,91.854-10.637c50.73,0,91.854,4.763,91.854,10.637
			C350.204,433.768,339.003,436.533,321.076,438.474z"/>
		<path style="fill:#407BFF;" d="M350.202,430.705c0,0.576-0.402,1.151-1.175,1.703c-7.05-5.063-44.961-8.927-90.678-8.927
			c-45.694,0-83.604,3.864-90.67,8.927c-0.781-0.552-1.183-1.12-1.183-1.703c0-5.875,41.128-10.639,91.853-10.639
			C309.082,420.066,350.202,424.829,350.202,430.705z"/>
	</g>
</g>
<g id="Speech_bubble_2">
	<g>
		<path style="fill:#407BFF;" d="M331.12,120.095v20.741c0,4.054,3.281,7.344,7.335,7.344h23.832c1.245,0,2.427-0.318,3.454-0.863
			l5.826,3.463l-2.854-6.408c0.582-1.045,0.909-2.254,0.909-3.536v-20.741c0-4.054-3.281-7.335-7.335-7.335h-23.832
			C334.401,112.76,331.12,116.041,331.12,120.095z"/>
		<path style="opacity:0.7;fill:#FFFFFF;" d="M331.12,120.095v20.741c0,4.054,3.281,7.344,7.335,7.344h23.832
			c1.245,0,2.427-0.318,3.454-0.863l5.826,3.463l-2.854-6.408c0.582-1.045,0.909-2.254,0.909-3.536v-20.741
			c0-4.054-3.281-7.335-7.335-7.335h-23.832C334.401,112.76,331.12,116.041,331.12,120.095z"/>
		<g>
			<path style="fill:#407BFF;" d="M361.733,124.685l-13.87,13.87c-0.045,0.055-0.091,0.1-0.145,0.145
				c-0.173,0.191-0.391,0.336-0.627,0.418c-0.118,0.054-0.236,0.082-0.354,0.109c-0.118,0.027-0.236,0.036-0.355,0.036
				c-0.236,0-0.482-0.055-0.709-0.145c-0.118-0.046-0.227-0.1-0.336-0.173c-0.109-0.073-0.209-0.155-0.3-0.245l-4.072-4.072
				c-0.391-0.391-0.564-0.863-0.564-1.327c0-0.982,0.763-1.918,1.909-1.918c0.5,0,0.991,0.2,1.345,0.554l2.727,2.727l12.661-12.67
				c0.373-0.364,0.864-0.554,1.345-0.554s0.973,0.191,1.345,0.554C362.469,122.74,362.469,123.949,361.733,124.685z"/>
		</g>
	</g>
</g>
<g id="Speech_bubble_1">
	<g>
		<path style="fill:#407BFF;" d="M196.115,120.095v20.741c0,4.054-3.281,7.344-7.335,7.344h-23.832
			c-1.245,0-2.427-0.318-3.454-0.863l-5.826,3.463l2.854-6.408c-0.582-1.045-0.909-2.254-0.909-3.536v-20.741
			c0-4.054,3.281-7.335,7.335-7.335h23.832C192.833,112.76,196.115,116.041,196.115,120.095z"/>
		<path style="opacity:0.7;fill:#FFFFFF;" d="M196.115,120.095v20.741c0,4.054-3.281,7.344-7.335,7.344h-23.832
			c-1.245,0-2.427-0.318-3.454-0.863l-5.826,3.463l2.854-6.408c-0.582-1.045-0.909-2.254-0.909-3.536v-20.741
			c0-4.054,3.281-7.335,7.335-7.335h23.832C192.833,112.76,196.115,116.041,196.115,120.095z"/>
		<g>
			<path style="fill:#407BFF;" d="M182.656,138.704l-14.017-14.017c-0.742-0.742-0.742-1.946,0-2.689l0,0
				c0.742-0.743,1.946-0.743,2.689,0l14.017,14.017c0.743,0.743,0.743,1.946,0,2.689l0,0
				C184.602,139.447,183.398,139.447,182.656,138.704z"/>
			<path style="fill:#407BFF;" d="M171.327,138.704l14.017-14.017c0.743-0.742,0.743-1.946,0-2.689l0,0
				c-0.742-0.743-1.946-0.743-2.689,0l-14.017,14.017c-0.742,0.743-0.742,1.946,0,2.689l0,0
				C169.381,139.447,170.585,139.447,171.327,138.704z"/>
		</g>
	</g>
</g>
<g id="Character_2">
	<g>
		<path style="fill:#263238;" d="M397.655,136.622c0,0-7.997-1.006-9.34,10.073c-1.343,11.079-5.113,12.174-3.837,18.1
			c1.585,7.36,9.625,6.893,13.982,4.676c1.722-0.876,12.877,1.919,19.832-0.36c6.955-2.278,7.339-9.363,2.652-15.64
			c-6.01-8.049-4.591-10.152-8.168-14.85C408.637,133.186,399.508,132.979,397.655,136.622z"/>
		<g>
			<g>
				<g>
					<g>
						<g>
							<polygon style="fill:#FFB573;" points="387.167,420.113 384.551,430.879 378.883,430.879 378.625,420.113 							"/>
							<g>
								<g>
									<path style="fill:#407BFF;" d="M362.421,438.494c0.307-3.508,1.848-4.555,3.751-4.675c1.979-0.125,9.045-2.491,9.045-2.491
										s1.476-2.227,2.776-2.68c1.301-0.452,2.559,0.873,2.559,0.873l3.559-0.434c0,0,1.067-1.602,1.8-0.198
										c1.137,2.174,1,8.193,0.894,9.605H362.421z"/>
								</g>
							</g>
							<g>
								<g>
									<g>
										<path d="M362.883,437.577c1.476-0.007,2.945-0.014,4.421-0.02c6.447-0.031,12.893-0.069,19.34-0.101
											c0.246,0.001,0.196-0.376-0.049-0.371c-0.434,0.005-0.876,0.003-1.31,0.008c-0.002-0.014-0.012-0.036-0.021-0.05
											c-1.196-2.021-0.399-4.074,1.318-5.098c0.202-0.113-0.037-0.441-0.231-0.322c-1.858,1.108-2.665,3.304-1.457,5.467
											c-0.911,0.009-1.816,0.012-2.728,0.014c-6.44,0.031-12.886,0.07-19.333,0.101
											C362.587,437.205,362.638,437.583,362.883,437.577z"/>
									</g>
								</g>
							</g>
							<g>
								<g>
									<g>
										<path style="fill:#FFFFFF;" d="M376.285,432.845c-1.005-1.181-2.475-1.516-3.546-0.625
											c-0.173,0.144-0.405-0.18-0.234-0.322c1.229-1.022,2.938-0.578,4.077,0.759
											C376.749,432.853,376.45,433.04,376.285,432.845L376.285,432.845z"/>
									</g>
								</g>
							</g>
							<g>
								<g>
									<g>
										<path style="fill:#FFFFFF;" d="M374.286,433.474c-1.006-1.181-2.475-1.516-3.546-0.625
											c-0.173,0.144-0.405-0.18-0.234-0.323c1.229-1.022,2.938-0.578,4.077,0.759
											C374.75,433.481,374.451,433.668,374.286,433.474L374.286,433.474z"/>
									</g>
								</g>
							</g>
							<g>
								<g>
									<g>
										<path style="fill:#FFFFFF;" d="M372.218,434.102c-1.005-1.181-2.474-1.516-3.545-0.625
											c-0.173,0.144-0.405-0.18-0.234-0.323c1.229-1.022,2.938-0.578,4.077,0.759
											C372.683,434.109,372.384,434.296,372.218,434.102L372.218,434.102z"/>
									</g>
								</g>
							</g>
						</g>
					</g>
					<path style="fill:#263238;" d="M410.62,279.089c-1.153,10.848-3.421,24.883-7.525,42.944
						c-1.192,5.248-2.541,10.839-4.066,16.79c4.173,34.461-12.158,84.246-12.158,84.246l-8.747-0.195c0,0-1.097-55.637-0.068-84.764
						c1.686-47.723,7.311-95.777,7.311-95.777l24.012,2.5C409.379,244.834,413.494,252.007,410.62,279.089z"/>
					<path style="opacity:0.1;fill:#FFFFFF;" d="M410.62,279.089c-1.153,10.848-3.421,24.883-7.525,42.944
						c-1.192,5.248-2.541,10.839-4.066,16.79c4.173,34.461-12.158,84.246-12.158,84.246l-8.747-0.195c0,0-1.097-55.637-0.068-84.764
						c1.686-47.723,7.311-95.777,7.311-95.777l24.012,2.5C409.379,244.834,413.494,252.007,410.62,279.089z"/>
					<path style="opacity:0.2;" d="M410.62,279.089c-1.153,10.848-3.421,24.883-7.525,42.944
						c-5.014-19.087,4.056-59.823,4.056-59.823L410.62,279.089z"/>
					<g>
						<polygon style="fill:#263238;" points="377.12,424.933 376.843,421.186 388.512,421.186 387.853,424.933 						"/>
					</g>
				</g>
				<g>
					<g>
						<g>
							<polygon style="fill:#FFB573;" points="423.434,420.113 420.818,430.879 415.15,430.879 414.892,420.113 							"/>
							<g>
								<polygon style="fill:#263238;" points="413.175,424.933 412.898,421.186 424.567,421.186 423.907,424.933 								"/>
							</g>
							<g>
								<g>
									<path style="fill:#407BFF;" d="M398.688,438.494c0.307-3.508,1.848-4.555,3.751-4.675c1.979-0.125,9.045-2.491,9.045-2.491
										s1.476-2.227,2.776-2.68c1.301-0.452,2.559,0.873,2.559,0.873l3.559-0.434c0,0,1.067-1.602,1.801-0.198
										c1.137,2.174,1,8.193,0.895,9.605H398.688z"/>
								</g>
							</g>
							<g>
								<g>
									<g>
										<path d="M399.15,437.577c1.476-0.007,2.945-0.014,4.421-0.02c6.447-0.031,12.893-0.069,19.34-0.101
											c0.246,0.001,0.196-0.376-0.049-0.371c-0.434,0.005-0.876,0.003-1.309,0.008c-0.002-0.014-0.012-0.036-0.021-0.05
											c-1.196-2.021-0.399-4.074,1.318-5.098c0.202-0.113-0.037-0.441-0.231-0.322c-1.858,1.108-2.665,3.304-1.457,5.467
											c-0.911,0.009-1.816,0.012-2.728,0.014c-6.44,0.031-12.886,0.07-19.333,0.101
											C398.854,437.205,398.904,437.583,399.15,437.577z"/>
									</g>
								</g>
							</g>
							<g>
								<g>
									<g>
										<path style="fill:#FFFFFF;" d="M412.551,432.845c-1.005-1.181-2.475-1.516-3.546-0.625
											c-0.173,0.144-0.405-0.18-0.234-0.322c1.229-1.022,2.938-0.578,4.077,0.759
											C413.016,432.853,412.717,433.04,412.551,432.845L412.551,432.845z"/>
									</g>
								</g>
							</g>
							<g>
								<g>
									<g>
										<path style="fill:#FFFFFF;" d="M410.552,433.474c-1.005-1.181-2.474-1.516-3.546-0.625
											c-0.173,0.144-0.405-0.18-0.234-0.323c1.229-1.022,2.938-0.578,4.077,0.759
											C411.017,433.481,410.718,433.668,410.552,433.474L410.552,433.474z"/>
									</g>
								</g>
							</g>
							<g>
								<g>
									<g>
										<path style="fill:#FFFFFF;" d="M408.485,434.102c-1.005-1.181-2.474-1.516-3.545-0.625
											c-0.173,0.144-0.405-0.18-0.234-0.323c1.229-1.022,2.938-0.578,4.077,0.759
											C408.95,434.109,408.651,434.296,408.485,434.102L408.485,434.102z"/>
									</g>
								</g>
							</g>
						</g>
					</g>
					<path style="fill:#263238;" d="M403.201,244.167c0,0,3.671,68.473,5.127,94.658c1.663,29.911,5.407,80.898,5.914,84.235h9.04
						c-1.036,1.008,11.604-44.756,6.508-82.016c4.776-35.639,5.957-66.849,1.245-101.211L403.201,244.167z"/>
					<path style="opacity:0.1;fill:#FFFFFF;" d="M403.201,244.167c0,0,3.671,68.473,5.127,94.658
						c1.663,29.911,5.407,80.898,5.914,84.235h9.04c-1.036,1.008,11.604-44.756,6.508-82.016
						c4.776-35.639,5.957-66.849,1.245-101.211L403.201,244.167z"/>
				</g>
			</g>
		</g>
		<g>
			<path style="fill:#FFB573;" d="M394.353,188.09c-5.45,4.37-10.97,8.58-16.66,12.65c-2.83,2.05-5.71,4.04-8.67,6.03
				c-1.51,0.99-2.95,1.94-4.74,2.97c-0.25,0.14-0.43,0.26-0.73,0.41l-0.44,0.23l-0.21,0.11l-0.35,0.15l-0.36,0.16l-0.18,0.07
				l-0.24,0.09c-0.42,0.14-0.86,0.25-1.3,0.31c-0.46,0.06-0.85,0.1-1.4,0.03c-0.52-0.05-1.05-0.17-1.55-0.35l-0.37-0.14l-0.17-0.07
				l-0.11-0.05l-0.18-0.1c-0.23-0.13-0.46-0.26-0.69-0.4c-0.67-0.45-1.09-0.78-1.49-1.1c-0.43-0.34-0.76-0.64-1.13-0.96
				c-2.79-2.49-5.27-4.9-7.76-7.39c-2.47-2.48-5.027-5.518-7.168-7.865c-4.7-5.152-8.722-9.896-13.313-15.156l3.35-4.349
				c5.4,4.35,10.76,8.76,16.07,13.19l7.95,6.6c2.41,1.97,4.83,4,7.18,5.79c0.82-0.59,1.67-1.23,2.5-1.86
				c2.71-2.01,5.4-4.14,8.13-6.23c5.41-4.22,10.9-8.44,16.4-12.56L394.353,188.09z"/>
			<g>
				<g>
					<path style="fill:#FFB573;" d="M321.391,165.937c0,0-1.524,2.673-1.227,4.343s3.166,3.121,3.166,3.121
						S322.685,168.334,321.391,165.937z"/>
					<path style="opacity:0.2;" d="M321.391,165.937c0,0-1.524,2.673-1.227,4.343s3.166,3.121,3.166,3.121
						S322.685,168.334,321.391,165.937z"/>
					<g>
						<path style="fill:#FFB573;" d="M321.084,168.757c0.881,1.035,1.377,2.593,1.907,4.21c-1.552,0.154-3.622-1.552-4.287-1.09
							c-0.628,0.425,0.573,1.798,2.702,3.509c0.864,0.695,0.658,1.358,1.308,2.329c0.433,0.645,1.1,1.097,1.827,1.37
							c1.187,0.446,2.249,0.526,2.249,0.526c1.963-0.269,4.33-4.095,4.33-4.095l-3.577-4.301c0,0-3.295-3.935-4.846-4.926
							c-1.54-0.989-5.291-4.859-5.762-4.197C316.273,163.022,318.731,166.026,321.084,168.757z"/>
					</g>
				</g>
			</g>
			<path style="fill:#407BFF;" d="M387.265,175.584l-15.269,11.68l9.543,14.154l11.09-6.552
				C392.629,194.866,390.258,178.798,387.265,175.584z"/>
			<path style="opacity:0.2;" d="M387.265,175.584l-15.269,11.68l9.543,14.154l11.09-6.552
				C392.629,194.866,390.258,178.798,387.265,175.584z"/>
			<path style="fill:#407BFF;" d="M382.716,186.178c0.342,9.236-6.852,14.529,1.732,21.148c0.751,7.699-2.807,22.163-0.425,34.755
				c0.189,1.001,0.905,1.846,1.874,2.163c6.416,2.1,28.506,1.119,45.252-2.958c1.601-0.39,2.598-1.986,2.245-3.595
				c-2.521-11.511-3.855-30.234-0.781-53.979c0.724-5.588-3.237-10.73-8.833-11.381c-1.582-0.184-3.258-0.343-4.973-0.453
				c-6.721-0.43-12.229-0.732-18.151-0.286c-1.963,0.148-3.992,0.364-5.931,0.605C387.727,173.067,382.455,179.132,382.716,186.178"
				/>
			<path style="fill:#FFB573;" d="M440.821,223.067c-3.049,4.147-6.412,8.294-9.707,12.383l4.264,4.475
				c4.389-3.356,8.472-6.907,12.421-10.844c1.983-1.976,3.886-4.044,5.739-6.468c0.462-0.614,0.918-1.252,1.364-1.969
				c0.446-0.717,0.889-1.489,1.309-2.473c0.209-0.485,0.409-1.048,0.58-1.739c0.162-0.684,0.328-1.516,0.232-2.713
				c-0.111-1.096-0.334-1.763-0.53-2.364c-0.197-0.594-0.405-1.04-0.605-1.494c-0.807-1.713-1.626-2.965-2.445-4.225
				c-0.827-1.245-1.661-2.412-2.505-3.549c-1.721-2.245-3.448-4.404-5.252-6.483c-3.584-4.172-7.263-8.116-11.25-11.928
				l-8.809,8.845l10.831,11.364c1.77,1.912,3.551,3.786,5.195,5.704c0.835,0.941,1.647,1.887,2.389,2.82
				c0.736,0.909,1.421,1.87,1.839,2.536c0.007,0.016,0.022,0.025,0.028,0.041c-0.066,0.144-0.133,0.303-0.208,0.461
				c-0.214,0.445-0.471,0.934-0.744,1.437C443.817,218.892,442.326,220.984,440.821,223.067z"/>
			<path style="fill:#FFB573;" d="M433.464,232.415c0,0-5.062,0.442-6.139,1.607c-1.078,1.166,1.969,9.852,4.321,11.024
				c2.352,1.172,1.326-1.847,1.326-1.847s3.024-1.099,4.671-3.366C439.289,237.566,439.292,233.263,433.464,232.415z"/>
			<path style="fill:#407BFF;" d="M430.449,176.022l10.89,12.479l-13.323,11.336l-9.696-10.508
				c-2.207-2.534-2.969-6.109-1.708-9.223c0.47-1.16,1.225-2.317,2.405-3.341C423.566,172.817,430.449,176.022,430.449,176.022z"/>
			<path style="opacity:0.2;" d="M430.449,176.022l10.89,12.479l-13.323,11.336l-9.696-10.508c-2.207-2.534-2.969-6.109-1.708-9.223
				c0.47-1.16,1.225-2.317,2.405-3.341C423.566,172.817,430.449,176.022,430.449,176.022z"/>
			<g>
				<g>
					<g>
						<g>
							<g>
								<g>
									<g>
										<g>
											<g>
												<g>
													<path style="fill:#FFB573;" d="M399.461,172.178c-0.048,0.083-0.086,0.169-0.126,0.253
														c-1.549,6.953,7.894,5.197,11.729-0.831c-2.547-3.39-3.043-9.305-2.455-13.577l-7.702,6.361l-1.494,1.43
														c0.335,1.085,0.604,2.195,0.661,3.249C400.149,170.183,399.996,171.249,399.461,172.178z"/>
												</g>
											</g>
										</g>
										<g style="opacity:0.2;">
											<g>
												<g>
													<path d="M400.075,169.063c-0.057-1.054-0.326-2.164-0.661-3.249l1.494-1.43l3.991-0.095
														C404.899,164.288,403.021,168.145,400.075,169.063z"/>
												</g>
											</g>
										</g>
										<g>
											<g>
												<g>
													<path style="fill:#FFB573;" d="M411.509,150.035c-1.05,7.72-1.391,9.692-5.531,13.383
														c-6.228,5.552-15.238,3.892-16.47-3.984c-1.109-7.091,0.796-18.523,8.472-21.048
														C405.542,135.897,412.559,142.315,411.509,150.035"/>
												</g>
											</g>
										</g>
										<path style="fill:#263238;" d="M399.872,141.788c0,0-2.308,5.532-9.481,3.413c0,0,2.907-6.337,8.729-7.36
											c5.822-1.023,10.761,2.667,11.945,5.564c0.915,2.237,1.072,4.784,1.039,6.557c-0.025,1.329-0.384,2.627-1.039,3.784l0,0
											C411.065,153.745,402.526,149.827,399.872,141.788z"/>
										<g>
											<g>
												<path style="fill:#FFFFFF;" d="M395.844,160.746c0.655,0.001,1.186-0.719,1.188-1.607
													c0.001-0.889-0.529-1.61-1.183-1.611c-0.655-0.001-1.186,0.719-1.187,1.608
													C394.659,160.024,395.189,160.745,395.844,160.746z"/>
											</g>
										</g>
										<g>
											<g>
												<g>
													<path style="fill:#263238;" d="M399.867,151.098c-0.047,0.631-0.421,1.118-0.833,1.087
														c-0.413-0.031-0.709-0.568-0.661-1.2c0.047-0.631,0.42-1.118,0.833-1.087
														C399.618,149.93,399.914,150.467,399.867,151.098"/>
												</g>
											</g>
										</g>
										<g>
											<g>
												<g>
													<path style="fill:#263238;" d="M393.27,150.768c-0.048,0.631-0.421,1.118-0.833,1.087
														c-0.412-0.031-0.708-0.568-0.661-1.199c0.047-0.631,0.42-1.118,0.833-1.087
														C393.021,149.6,393.318,150.137,393.27,150.768"/>
												</g>
											</g>
										</g>
										<g>
											<g>
												<g>
													<path style="fill:#263238;" d="M392.788,149.618l-1.483-0.551C391.305,149.066,391.994,150.31,392.788,149.618"/>
												</g>
											</g>
										</g>
										<g>
											<g>
												<g>
													<path style="fill:#ED893E;" d="M395.316,151.065c0,0-1.214,1.591-2.505,2.955c-0.419,0.443-0.336,1.165,0.193,1.474
														c0.907,0.531,1.912,0.816,1.912,0.816L395.316,151.065z"/>
												</g>
											</g>
										</g>
										<g>
											<g>
												<g>
													<path style="fill:#263238;" d="M401.102,148.089c-0.081,0.055-0.185,0.078-0.288,0.056
														c-1.621-0.354-2.606,0.594-2.618,0.605c-0.146,0.141-0.382,0.142-0.526-0.004c-0.144-0.146-0.142-0.381,0.004-0.526
														c0.051-0.05,1.288-1.242,3.299-0.801c0.2,0.044,0.327,0.242,0.284,0.443
														C401.235,147.957,401.178,148.037,401.102,148.089"/>
												</g>
											</g>
										</g>
										<g>
											<g>
												<g>
													<path style="fill:#263238;" d="M390.876,147.154c-0.065-0.066-0.107-0.154-0.109-0.255
														c-0.004-0.205,0.159-0.375,0.364-0.38c2.056-0.045,3.042,1.361,3.083,1.421c0.116,0.17,0.073,0.401-0.097,0.517
														c-0.169,0.116-0.4,0.073-0.516-0.096c-0.038-0.056-0.818-1.134-2.453-1.098
														C391.041,147.266,390.945,147.224,390.876,147.154"/>
												</g>
											</g>
										</g>
										<g>
											<g>
												<g>
													<path style="fill:#263238;" d="M399.385,149.947l-1.483-0.551C397.902,149.396,398.591,150.639,399.385,149.947"/>
												</g>
											</g>
										</g>
									</g>
									<g>
										<g>
											<g>
												<path style="fill:#FFB573;" d="M413.863,155.613c-0.805,1.432-2.09,2.273-3.26,2.507
													c-1.76,0.352-2.474-1.603-1.846-3.485c0.566-1.694,2.163-3.919,3.862-3.413
													C414.293,151.719,414.783,153.976,413.863,155.613"/>
											</g>
										</g>
									</g>
									<g>
										<g>
											<path style="fill:#FFFFFF;" d="M410.26,158.897c0.571,0.411,1.367,0.281,1.778-0.291c0.411-0.571,0.28-1.367-0.291-1.778
												c-0.571-0.411-1.367-0.28-1.778,0.291C409.558,157.691,409.688,158.487,410.26,158.897z"/>
										</g>
									</g>
								</g>
							</g>
						</g>
					</g>
				</g>
			</g>
		</g>
	</g>
</g>
<g id="Character_1">
	<g>
		<g>
			<g>
				<g>
					<g>
						<polygon style="fill:#B55B52;" points="84.701,415.099 83.731,430.62 90.347,431.147 94.791,415.884 						"/>
					</g>
				</g>
			</g>
			<g>
				<g>
					<g>
						<path style="fill:#263238;" d="M88.807,429.602c0,0,1.014-1.253,2.3-0.826c1.286,0.428,2.97,2.534,2.97,2.534
							s6.976,2.237,8.86,2.355c1.884,0.118,3.124,1.326,3.276,4.828H82.489c0,0,0-8.23,0.805-9.656
							c0.698-1.237,2.098,0.353,2.098,0.353L88.807,429.602z"/>
					</g>
				</g>
			</g>
			<g>
				<g>
					<g>
						<g>
							<path style="fill:#FFFFFF;" d="M105.673,437.41c-1.369-0.016-2.746-0.032-4.115-0.048
								c-5.998-0.063-12.004-0.127-18.002-0.182c-0.229-0.008-0.229-0.356,0-0.356c0.404,0.008,0.815,0.008,1.219,0.008
								c0-0.016,0-0.024,0.008-0.04c0.87-1.907-0.134-3.854-1.852-4.827c-0.198-0.111-0.024-0.419,0.174-0.301
								c1.868,1.052,2.888,3.134,2.034,5.175l2.54,0.024c5.998,0.063,11.996,0.126,17.995,0.19
								C105.903,437.054,105.903,437.41,105.673,437.41z"/>
						</g>
					</g>
				</g>
			</g>
			<g>
				<g>
					<g>
						<g>
							<path style="fill:#FFFFFF;" d="M93.268,432.745c0.794-1.116,2.137-1.434,3.264-0.591c0.182,0.136,0.359-0.171,0.178-0.305
								c-1.293-0.967-2.847-0.547-3.747,0.718C92.831,432.752,93.137,432.929,93.268,432.745L93.268,432.745z"/>
						</g>
					</g>
				</g>
			</g>
			<g>
				<g>
					<g>
						<g>
							<path style="fill:#FFFFFF;" d="M95.236,433.339c0.794-1.117,2.137-1.433,3.264-0.591c0.182,0.136,0.359-0.17,0.178-0.305
								c-1.293-0.966-2.847-0.547-3.747,0.718C94.799,433.346,95.105,433.523,95.236,433.339L95.236,433.339z"/>
						</g>
					</g>
				</g>
			</g>
			<g>
				<g>
					<g>
						<g>
							<path style="fill:#FFFFFF;" d="M97.269,433.933c0.794-1.116,2.137-1.433,3.264-0.591c0.182,0.136,0.359-0.17,0.178-0.305
								c-1.294-0.967-2.847-0.547-3.747,0.718C96.832,433.94,97.138,434.117,97.269,433.933L97.269,433.933z"/>
						</g>
					</g>
				</g>
			</g>
		</g>
		<g>
			<g>
				<g>
					<g>
						<polygon style="fill:#B55B52;" points="132.746,414.936 133.668,430.615 140.349,431.147 142.932,415.729 						"/>
					</g>
				</g>
			</g>
			<g>
				<g>
					<g>
						<path style="fill:#263238;" d="M138.809,429.602c0,0,1.014-1.253,2.3-0.826c1.286,0.428,2.97,2.534,2.97,2.534
							s6.976,2.237,8.86,2.355c1.884,0.118,3.533,1.178,4.239,4.828h-22.845c0,0-0.899-8.243-1.038-9.656
							c-0.139-1.413,2.098,0.353,2.098,0.353L138.809,429.602z"/>
					</g>
				</g>
			</g>
			<g>
				<g>
					<g>
						<g>
							<path style="fill:#FFFFFF;" d="M156.5,437.41c-1.369-0.016-2.746-0.032-4.115-0.048c-5.998-0.063-12.004-0.127-18.002-0.182
								c-0.23-0.008-0.23-0.356,0-0.356c0.403,0.008,0.815,0.008,1.219,0.008c0-0.016,0-0.024,0.008-0.04
								c0.87-1.907-0.134-3.854-1.852-4.827c-0.198-0.111-0.024-0.419,0.174-0.301c1.867,1.052,2.888,3.134,2.034,5.175l2.54,0.024
								c5.998,0.063,11.996,0.126,17.995,0.19C156.73,437.054,156.73,437.41,156.5,437.41z"/>
						</g>
					</g>
				</g>
			</g>
			<g>
				<g>
					<g>
						<g>
							<path style="fill:#FFFFFF;" d="M143.27,432.745c0.794-1.116,2.137-1.434,3.264-0.591c0.182,0.136,0.358-0.171,0.178-0.305
								c-1.293-0.967-2.847-0.547-3.747,0.718C142.832,432.752,143.139,432.929,143.27,432.745L143.27,432.745z"/>
						</g>
					</g>
				</g>
			</g>
			<g>
				<g>
					<g>
						<g>
							<path style="fill:#FFFFFF;" d="M145.238,433.339c0.794-1.117,2.137-1.433,3.264-0.591c0.182,0.136,0.359-0.17,0.178-0.305
								c-1.294-0.966-2.847-0.547-3.747,0.718C144.801,433.346,145.107,433.523,145.238,433.339L145.238,433.339z"/>
						</g>
					</g>
				</g>
			</g>
			<g>
				<g>
					<g>
						<g>
							<path style="fill:#FFFFFF;" d="M147.27,433.933c0.794-1.116,2.137-1.433,3.264-0.591c0.182,0.136,0.359-0.17,0.178-0.305
								c-1.294-0.967-2.848-0.547-3.747,0.718C146.833,433.94,147.139,434.117,147.27,433.933L147.27,433.933z"/>
						</g>
					</g>
				</g>
			</g>
		</g>
		<path style="fill:#407BFF;" d="M151.955,326.97c-0.27,23.93-8.07,93.59-8.07,93.59h-12.79c0,0-2.35-68.43-3.5-91.94
			c-0.21-4.32-0.6-9.49-1.11-15.11c-1.15-12.7-2.88-27.68-4.43-40.16c-0.03-0.3-0.07-0.58-0.1-0.85
			c-1.77-14.3-3.26-25.14-3.26-25.14l29.62,4.2C148.315,251.56,152.215,303.95,151.955,326.97z"/>
		<path style="opacity:0.2;" d="M126.485,313.51c-1.15-12.7-2.88-27.68-4.43-40.16c-0.03-0.3-0.07-0.58-0.1-0.85l4.5-1.33
			C126.455,271.17,131.165,290.51,126.485,313.51z"/>
		<path style="fill:#263238;" d="M130.135,416.689c0.026,1.381,0.126,4.127,0.126,4.127h14.735l0.444-4.127H130.135z"/>
		<path style="fill:#407BFF;" d="M129.186,247.359c0,0-3.88,57.71-8.052,79.315c-4.568,23.659-25.303,93.882-25.303,93.882h-12.1
			c0,0,8.804-66.131,11.168-89.556c2.565-25.424,2.033-78.759,2.033-78.759L129.186,247.359z"/>
		<path style="fill:#263238;" d="M81.392,416.587c-0.134,1.415-0.348,4.229-0.348,4.229H97.23l0.974-4.229H81.392z"/>
		<path style="fill:#263238;" d="M151.299,262.71c-11.01,4.15-39.84,4.62-59.24-0.86c1.12-11.85,3.18-24.8,4.56-50.88
			c0.22-4.09,0.38-8.26,0.49-12.49c0.01-0.22,0.01-0.44,0.01-0.66c0.06-2.5,0.09-5.03,0.09-7.56c0.01-4.66-0.08-9.35-0.29-14
			c-0.16-3.85,2.34-7.27,6.16-7.66c3.09-0.31,6.82-0.59,10.46-0.6c6.64-0.02,16.22,0.23,22,1.09c3.91,0.58,6.81,1.72,8.71,2.7
			c1.86,0.95,3.21,2.61,3.83,4.6C150.369,183.79,152.069,214.06,151.299,262.71z"/>
		<path style="opacity:0.2;" d="M105.839,186.08l-8.72,11.74c0.06-2.5,0.09-5.03,0.09-7.56L105.839,186.08z"/>
		<g>
			<g>
				<g>
					<g>
						<path style="fill:#263238;" d="M128.75,130.691c-3.992-0.443-8.048,0.684-11.091,3.306c-1.987,1.712-4.585,3.253-2.738,9.19
							c1.929,6.202,5.741,13.943,5.741,13.943l19.07-14.663c0,0,0.097-6.114-2.972-9.149
							C135.163,131.739,131.702,131.019,128.75,130.691z"/>
					</g>
					<path style="fill:#263238;" d="M125.136,131.125c0,0,4.137-4.875,5.805-4.5c1.668,0.375,0.499,1.938,0.499,1.938
						s2.933-3.188,4.895-2.375s0.274,2.625,0.274,2.625s3.866-1.813,4.527,0s-1.298,2.375-1.298,2.375s4.771,0.813,4.271,2.688
						s-2.837,1.688-2.837,1.688s2.453,1.994,1.149,3.063c-1.303,1.068-4.315-1.563-4.315-1.563L125.136,131.125z"/>
					<g>
						<g>
							<path style="fill:#B55B52;" d="M131.835,162.798l0.003,0.008c-0.009,0.031-0.012,0.05-0.021,0.081l-0.52,3.813
								c0.013,0.764,0.096,1.515,0.244,2.237c0.123,0.61,0.293,1.195,0.493,1.754c0.949,1.012,1.646,3.489-1.237,3.857
								c-3.638,0.471-10.976-4.024-11.414-5.601c1.07-5.184,1.762-11.177,0.902-15.897l4.71,3.981L131.835,162.798z"/>
						</g>
					</g>
					<g style="opacity:0.2;">
						<g>
							<path d="M131.816,162.887l-0.52,3.813c-2.407-0.758-5.067-2.706-5.912-5.063c-0.598-1.703-0.012-3.437,0.683-3.613
								L131.816,162.887z"/>
						</g>
					</g>
					<g>
						<g>
							<path style="fill:#B55B52;" d="M140.079,154.015c-0.116,0.83-0.259,1.65-0.421,2.462c-1.447,7.171-9.867,8.844-15.779,4.422
								c-0.009-0.009-0.009-0.018-0.018-0.018c-0.524-0.393-1.031-0.832-1.51-1.326c-3.904-4.004-3.479-7.503-3.924-15.276
								c-0.444-7.764,7.199-13.592,14.675-10.512C140.001,136.612,141.256,145.72,140.079,154.015z"/>
						</g>
					</g>
					<g>
						<g>
							<path style="fill:#FFFFFF;" d="M133.367,157.128c0.654,0.038,1.226-0.65,1.278-1.537c0.052-0.887-0.435-1.637-1.089-1.676
								c-0.654-0.038-1.226,0.65-1.278,1.537C132.226,156.339,132.713,157.09,133.367,157.128z"/>
						</g>
					</g>
					<g>
						<path style="fill:#263238;" d="M130.771,147.691c-0.009,0.627,0.316,1.139,0.726,1.145c0.41,0.006,0.748-0.497,0.757-1.124
							c0.009-0.626-0.316-1.139-0.726-1.145C131.119,146.561,130.779,147.065,130.771,147.691"/>
					</g>
					<g>
						<path style="fill:#263238;" d="M137.594,147.759c-0.009,0.627,0.316,1.139,0.726,1.145c0.409,0.006,0.748-0.497,0.757-1.124
							c0.009-0.626-0.316-1.139-0.726-1.145C137.942,146.629,137.603,147.132,137.594,147.759"/>
					</g>
					<g>
						<path style="fill:#263238;" d="M118.431,145.011c0,0,1.932,1.441,2.335,3.409c0.12,0.588,0.526,0.655,0.526,0.655l2.817,0.229
							c0,0-1.718-7.493,0.295-7.65c2.013-0.156-0.586-3.296,0.555-3.94c2.69-1.521,10.41-2.565,13.978,1.714
							c0,0-1.367-4.493-5.347-6.506c-3.98-2.013-11.426-1.605-13.953,2.395C117.109,139.317,118.431,145.011,118.431,145.011z"/>
					</g>
					<g>
						<g>
							<path style="fill:#B55B52;" d="M115.07,149.448c0.564,2.021,2.007,3.593,3.522,4.415c2.279,1.237,3.994-0.662,3.843-3.114
								c-0.136-2.208-1.485-5.511-4.005-5.739C115.949,144.786,114.426,147.137,115.07,149.448"/>
						</g>
					</g>
				</g>
				<g>
					<g>
						<path style="fill:#263238;" d="M139.541,144.489c-0.077,0.075-0.191,0.108-0.302,0.076c-0.496-0.143-0.922-0.116-1.267,0.08
							c-0.567,0.323-0.759,1.01-0.761,1.017c-0.041,0.161-0.21,0.264-0.376,0.22c-0.165-0.043-0.264-0.212-0.221-0.377
							c0.01-0.037,0.254-0.943,1.053-1.397c0.495-0.282,1.082-0.328,1.743-0.137c0.164,0.047,0.259,0.218,0.211,0.382
							C139.606,144.407,139.578,144.453,139.541,144.489z"/>
					</g>
				</g>
				<g>
					<g>
						<path style="fill:#263238;" d="M130.462,144.59c0.082,0.07,0.199,0.094,0.307,0.054c0.484-0.179,0.911-0.183,1.27-0.013
							c0.589,0.281,0.831,0.951,0.833,0.959c0.053,0.158,0.229,0.248,0.391,0.192c0.161-0.055,0.248-0.231,0.193-0.392
							c-0.012-0.036-0.323-0.922-1.153-1.316c-0.514-0.245-1.103-0.247-1.748-0.008c-0.16,0.059-0.242,0.237-0.183,0.397
							C130.392,144.513,130.423,144.557,130.462,144.59z"/>
					</g>
				</g>
				<g>
					<g>
						<path style="fill:#A02724;" d="M134.514,147.157c0,0,0.449,2.001,2.028,3.342c1.58,1.341-1.552,2.511-1.552,2.511
							L134.514,147.157z"/>
					</g>
				</g>
			</g>
		</g>
		<path style="fill:#263238;" d="M134.191,183.992c2.598,6.944,5.447,13.665,8.508,20.406c1.545,3.361,3.119,6.722,4.848,10.073
			c0.859,1.671,1.748,3.351,2.694,5.051c0.406,0.705,0.811,1.41,1.255,2.134c0.599,0.995,1.236,2.018,1.97,3.081
			c0.435,0.608,0.859,1.217,1.449,1.922c0.309,0.377,0.666,0.782,1.101,1.227c0.348,0.348,0.734,0.705,1.323,1.159
			c0.116,0.087,0.319,0.232,0.521,0.357c0.193,0.135,0.396,0.251,0.608,0.377c0.212,0.106,0.338,0.155,0.521,0.241l0.995,0.435
			l0.251,0.106l0.551,0.203l1.458,0.502l1.371,0.435l2.704,0.821c3.564,1.072,7.108,1.99,10.652,2.926
			c7.108,1.806,14.235,3.419,21.449,4.79l2.337-7.282c-6.615-3.081-13.298-5.997-19.972-8.827l-9.938-4.211l-2.414-1.053
			l-1.178-0.531l-1.072-0.512l-0.01-0.01c-0.154-0.212-0.415-0.599-0.637-0.995c-0.724-1.217-1.487-2.704-2.231-4.22
			c-0.744-1.516-1.487-3.09-2.202-4.684c-1.439-3.197-2.859-6.461-4.249-9.744l-8.286-19.837L134.191,183.992z M165.645,217.542
			c0.029,0.01,0.058,0.029,0.087,0.048l0.096,0.068l-0.039-0.019l-0.058-0.039C165.703,217.581,165.674,217.562,165.645,217.542z"/>
		<path style="opacity:0.2;" d="M149.314,190.472c0.802,5.746,2.173,31.117,2.173,31.117s0,0.019,0.01,0.068
			c0.599,0.995,1.236,2.018,1.97,3.081c0.435,0.608,0.859,1.217,1.449,1.922C154.385,214.481,149.314,190.472,149.314,190.472z"/>
		<g>
			<g>
				<g>
					<g>
						<g>
							<g>
								<path style="fill:#B55B52;" d="M198.937,233.765c0,0,2-2.14,4.421-2.194c2.421-0.054,4.341-0.741,6.143-0.657
									c1.803,0.085-0.113,1.589-1.294,2.183c-1.181,0.594-2.514,1.279-1.924,2.094c0.59,0.815,8.476,4.373,9.165,5.597
									c0.689,1.223-0.767,1.047-0.767,1.047s1.762,0.811,1.734,1.764c-0.029,0.953-1.289,0.776-1.289,0.776
									s1.164,0.586,0.657,1.359c-0.507,0.773-7.303-1.085-7.656-1.004c0,0,4.026,0.232,4.204,1.412
									c0.178,1.179-2.429,0.792-4.515,0.527c-2.086-0.265-4.207-1.211-5.658-2.795c-1.451-1.583-4.716-3.479-4.335-5.931
									C198.205,235.493,198.937,233.765,198.937,233.765z"/>
							</g>
						</g>
					</g>
				</g>
				<g style="opacity:0.2;">
					<g>
						<g>
							<g>
								<g>
									<path d="M214.789,244.44c-2.02-0.914-4.067-1.76-6.129-2.524c-0.217,0.538-0.474,1.047-0.766,1.55
										c-0.153,0.244-0.464-0.073-0.325-0.317c0.888-1.508,1.43-3.23,1.612-5.086c0.03-0.3,0.425-0.201,0.395,0.099
										c-0.045,0.464-0.111,0.907-0.204,1.35c0.034-0.02,0.075-0.02,0.116-0.006c1.655,0.473,3.253,1.151,4.795,2.033
										c0.231,0.139,0.077,0.561-0.168,0.422c-1.508-0.861-3.072-1.532-4.686-1.991c-0.061-0.021-0.102-0.062-0.129-0.117
										c-0.121,0.566-0.284,1.117-0.48,1.648c2.062,0.764,4.103,1.603,6.129,2.524
										C215.195,244.137,215.034,244.552,214.789,244.44z"/>
								</g>
							</g>
						</g>
					</g>
				</g>
				<g style="opacity:0.2;">
					<g>
						<g>
							<g>
								<g>
									<path d="M207.053,239.768c-1.564-2.118-3.927-2.912-6.113-2.107c-0.247,0.093-0.4-0.352-0.153-0.445
										c2.371-0.879,4.896,0.012,6.589,2.289C207.545,239.746,207.221,239.995,207.053,239.768z"/>
								</g>
							</g>
						</g>
					</g>
				</g>
			</g>
		</g>
		<path style="fill:#407BFF;" d="M131.217,167.463c0,0,3.764-0.413,5.771,1.876c0.805,2.81-0.969,6.156-2.885,9.532l-4.165-4.299
			C129.658,174.574,131.814,170.909,131.217,167.463z"/>
		<path style="fill:#407BFF;" d="M120.023,165.408c1.784,4.11,5.586,6.82,9.914,9.164l-2.351,4.299
			c-6.326-2.664-11.104-6.325-14.512-10.872C113.074,167.999,117.258,164.313,120.023,165.408z"/>
		<path style="fill:#407BFF;" d="M129.83,180.788c0.007,0.409,0.344,0.735,0.753,0.728c0.409-0.007,0.735-0.344,0.728-0.753
			c-0.007-0.409-0.344-0.735-0.753-0.728C130.149,180.042,129.824,180.379,129.83,180.788z"/>
		<path style="fill:#407BFF;" d="M129.913,185.636c0.007,0.409,0.344,0.735,0.753,0.728c0.409-0.007,0.735-0.344,0.728-0.753
			c-0.007-0.409-0.344-0.735-0.753-0.728C130.232,184.89,129.906,185.227,129.913,185.636z"/>
		<path style="fill:#407BFF;" d="M129.995,190.484c0.007,0.409,0.344,0.735,0.753,0.728c0.409-0.007,0.735-0.344,0.728-0.753
			c-0.007-0.409-0.344-0.735-0.753-0.728C130.314,189.738,129.988,190.075,129.995,190.484z"/>
		<path style="fill:#263238;" d="M96.082,231.78l-4.704,6.46c-6.388-3.691-12.427-7.652-18.359-12.275
			c-1.478-1.156-2.966-2.356-4.417-3.7c-1.469-1.362-2.912-2.724-4.444-4.704c-0.385-0.502-0.779-1.075-1.174-1.747
			c-0.394-0.699-0.824-1.514-1.174-2.787c-0.09-0.296-0.17-0.69-0.224-1.093c-0.063-0.349-0.099-0.887-0.099-1.362
			c0-0.224,0.018-0.529,0.054-0.824c0.036-0.287,0.072-0.573,0.134-0.869c0.072-0.323,0.161-0.645,0.278-0.959l0.161-0.466
			l0.117-0.26l0.242-0.511l0.206-0.376l0.197-0.349l0.17-0.278c0.233-0.376,0.421-0.645,0.618-0.941
			c0.753-1.048,1.398-1.855,2.052-2.634c0.654-0.78,1.29-1.514,1.926-2.231c2.554-2.822,5.125-5.421,7.706-8.001
			c2.607-2.545,5.206-5.08,7.876-7.517c5.304-4.919,10.689-9.677,16.325-14.228l10.411,12.311
			c-5.259,4.713-10.707,9.327-16.101,13.906l-8.064,6.863c-2.679,2.267-5.331,4.57-7.804,6.837c-0.6,0.547-1.192,1.093-1.729,1.622
			c0.43,0.574,0.914,1.174,1.407,1.756c1.039,1.219,2.168,2.473,3.342,3.709C85.724,222.076,90.966,226.951,96.082,231.78z"/>
		<path style="fill:#B55B52;" d="M92.492,228.386c0,0,7.616,0.441,8.948,1.426c1.332,0.985-3.057,9.807-5.239,11.467
			c-2.182,1.66-1.72-1.635-1.72-1.635s-3.777,0.357-5.906-1.646C86.447,235.995,86.685,230.39,92.492,228.386z"/>
	</g>
</g>
</svg>
